<svg width="17" height="17" viewBox="0 0 17 17" fill="none" xmlns="http://www.w3.org/2000/svg">
<g clip-path="url(#clip0_2525_7852)">
<path d="M6.37502 15.5833C6.76622 15.5833 7.08335 15.2662 7.08335 14.875C7.08335 14.4838 6.76622 14.1666 6.37502 14.1666C5.98382 14.1666 5.66669 14.4838 5.66669 14.875C5.66669 15.2662 5.98382 15.5833 6.37502 15.5833Z" stroke="white" stroke-width="1.33333" stroke-linecap="round" stroke-linejoin="round"/>
<path d="M14.1666 15.5833C14.5578 15.5833 14.875 15.2662 14.875 14.875C14.875 14.4838 14.5578 14.1666 14.1666 14.1666C13.7754 14.1666 13.4583 14.4838 13.4583 14.875C13.4583 15.2662 13.7754 15.5833 14.1666 15.5833Z" stroke="white" stroke-width="1.33333" stroke-linecap="round" stroke-linejoin="round"/>
<path d="M0.708313 0.708374H3.54165L5.43998 10.193C5.50475 10.5191 5.68216 10.812 5.94116 11.0205C6.20015 11.229 6.52422 11.3397 6.85665 11.3334H13.7416C14.0741 11.3397 14.3981 11.229 14.6571 11.0205C14.9161 10.812 15.0935 10.5191 15.1583 10.193L16.2916 4.25004H4.24998" stroke="white" stroke-width="1.33333" stroke-linecap="round" stroke-linejoin="round"/>
</g>
<defs>
<clipPath id="clip0_2525_7852">
<rect width="17" height="17" fill="white"/>
</clipPath>
</defs>
</svg>
