<svg width="199" height="42" viewBox="0 0 199 42" fill="none" xmlns="http://www.w3.org/2000/svg">
<path d="M199 3.30859H0V0.00011301H199V3.30859Z" fill="url(#paint0_linear_2438_25668)"/>
<path d="M199 41.6279H0V38.3194H199V41.6279Z" fill="url(#paint1_linear_2438_25668)"/>
<path d="M19.1687 10.7944H6.30469V12.1745H11.6304V29.4999H13.8158V12.1745H19.1687V10.7944Z" fill="#7B52AB"/>
<path d="M29.9014 12.0614C32.5484 12.0614 33.933 13.5274 33.933 16.6088C33.933 20.1472 32.5212 21.2693 30.1593 21.2693H27.829V12.0614H29.9014ZM30.1593 10.7944H25.6436V29.4999H27.829V22.5634H30.6796L34.9691 29.4999H37.4714L32.7791 22.1607C34.6796 21.4141 36.2316 19.6585 36.2316 16.5228C36.2316 12.808 33.933 10.7944 30.1593 10.7944Z" fill="#7B52AB"/>
<path d="M55.4303 28.1198H46.9101V20.6947H54.1316V19.3689H46.9101V12.1745H54.7968V10.7944H44.7246V29.4999H55.4303V28.1198Z" fill="#7B52AB"/>
<path d="M76.2035 10.7944H74.6244V25.5271L74.7104 26.2194L65.154 10.7944H62.8826V29.4999H64.4662V14.4505L64.3215 13.5546H64.3486L74.3077 29.4999H76.2035V10.7944Z" fill="#7B52AB"/>
<path d="M90.882 12.1745C94.8819 12.1745 97.0131 14.7355 97.0131 20.206C97.0131 25.6448 94.8819 28.1198 90.9092 28.1198H87.3708V12.1745H90.882ZM85.1853 29.4999H90.882C96.2937 29.4999 99.3705 26.2783 99.3705 20.206C99.3705 14.0749 96.2077 10.7944 90.882 10.7944H85.1853V29.4999Z" fill="#7B52AB"/>
<path d="M135.804 10.7944H133.27L126.682 26.8212H126.655L120.062 10.7944H117.388L117.415 10.8804L117.356 10.7944L117.271 29.4999H118.854L118.913 13.4686L125.415 29.4999H127.171L133.646 13.4686H133.673L133.759 29.4999H135.89L135.804 10.7944Z" fill="#7B52AB"/>
<path d="M150.021 12.4641L153.274 22.5634H146.709L150.021 12.4641ZM149.129 10.7944L142.826 29.4999H144.351L146.306 23.7444H153.645L155.604 29.4999H157.876L151.69 10.7944H149.129Z" fill="#7B52AB"/>
<path d="M175.287 28.1198H166.971V10.7944H164.785V29.4999H175.287V28.1198Z" fill="#7B52AB"/>
<path d="M192.409 28.1198H184.093V10.7944H181.907V29.4999H192.409V28.1198Z" fill="#7B52AB"/>
<defs>
<linearGradient id="paint0_linear_2438_25668" x1="0" y1="3.30859" x2="198.889" y2="-3.33526" gradientUnits="userSpaceOnUse">
<stop stop-color="#00DDFF"/>
<stop offset="1" stop-color="#FF00D4"/>
</linearGradient>
<linearGradient id="paint1_linear_2438_25668" x1="0" y1="41.6279" x2="198.889" y2="34.9841" gradientUnits="userSpaceOnUse">
<stop stop-color="#00DDFF"/>
<stop offset="1" stop-color="#FF00D4"/>
</linearGradient>
</defs>
</svg>
