<svg width="90" height="90" version="1.1" xmlns="http://www.w3.org/2000/svg">

  <rect x="10" y="10" width="8" height="8" fill="#2C2C31"/>
  <rect x="24" y="10" width="8" height="8" fill="#2C2C31"/>
  <rect x="38" y="10" width="8" height="8" fill="#2C2C31"/>
  <rect x="52" y="10" width="8" height="8" fill="#2C2C31"/>
  <rect x="66" y="10" width="8" height="8" fill="#2C2C31"/>

  <rect x="10" y="24" width="8" height="8" fill="#2C2C31"/>
  <rect x="24" y="24" width="8" height="8" fill="#2C2C31"/>
  <rect x="38" y="24" width="8" height="8" fill="#2C2C31"/>
  <rect x="52" y="24" width="8" height="8" fill="#2C2C31"/>
  <rect x="66" y="24" width="8" height="8" fill="#2C2C31"/>

  <rect x="10" y="38" width="8" height="8" fill="#2C2C31"/>
  <rect x="24" y="38" width="8" height="8" fill="#2C2C31"/>
  <rect x="38" y="38" width="8" height="8" fill="#2C2C31"/>
  <rect x="52" y="38" width="8" height="8" fill="#2C2C31"/>
  <rect x="66" y="38" width="8" height="8" fill="#2C2C31"/>

  <rect x="10" y="52" width="8" height="8" fill="#2C2C31"/>
  <rect x="24" y="52" width="8" height="8" fill="#2C2C31"/>
  <rect x="38" y="52" width="8" height="8" fill="#2C2C31"/>
  <rect x="52" y="52" width="8" height="8" fill="#2C2C31"/>
  <rect x="66" y="52" width="8" height="8" fill="#2C2C31"/>

  <rect x="10" y="66" width="8" height="8" fill="#2C2C31"/>
  <rect x="24" y="66" width="8" height="8" fill="#2C2C31"/>
  <rect x="38" y="66" width="8" height="8" fill="#2C2C31"/>
  <rect x="52" y="66" width="8" height="8" fill="#2C2C31"/>
  <rect x="66" y="66" width="8" height="8" fill="#2C2C31"/>
</svg>